# AST/ASF file generated using VICON BodyLanguage
# -----------------------------------------------
:version 1.10
:name VICON
:units
  mass 1.0
  length 0.45
  angle deg
:documentation
   .ast/.asf automatically generated from VICON data using
   VICON BodyBuilder and BodyLanguage model FoxedUp or BRILLIANT.MOD
:root
   order TX TY TZ RX RY RZ
   axis XYZ
   position 0 0 0  
   orientation 0 0 0 
:bonedata
  begin
     id 1 
     name lhipjoint
     direction 0.567149 -0.783011 0.255413 
     length 2.28399 
     axis 0 0 0  XYZ
  end
  begin
     id 2 
     name lfemur
     direction 0.34202 -0.939693 0  
     length 7.34031  
     axis 0 0 20  XYZ
    dof rx ry rz
    limits (-160.0 20.0)
           (-70.0 70.0)
           (-60.0 70.0)
  end
  begin
     id 3 
     name ltibia
     direction 0.34202 -0.939693 0   
     length 6.9833   
     axis 0 0 20   XYZ
    dof rx
    limits (-10.0 170.0)
  end
  begin
     id 4 
     name lfoot
     direction 0.136498 -0.375025 0.91691   
     length 2.33665   
     axis -90 7.62852e-016 20   XYZ
    dof rx rz
    limits (-45.0 90.0)
           (-70.0 20.0)
  end
  begin
     id 5 
     name ltoes
     direction 1.5367e-011 -4.21617e-011 1   
     length 1.15039   
     axis -90 7.62852e-016 20   XYZ
    dof rx
    limits (-90.0 20.0)
  end
  begin
     id 6 
     name rhipjoint
     direction -0.602854 -0.758518 0.247423   
     length 2.35775  
     axis 0 0 0  XYZ 
  end
  begin
     id 7 
     name rfemur
     direction -0.34202 -0.939693 0   
     length 7.43932   
     axis 0 0 -20   XYZ
    dof rx ry rz
    limits (-160.0 20.0)
           (-70.0 70.0)
           (-70.0 60.0)
  end
  begin
     id 8 
     name rtibia
     direction -0.34202 -0.939693 0   
     length 7.11893   
     axis 0 0 -20   XYZ
    dof rx
    limits (-10.0 170.0)
 end
 begin
     id 9 
     name rfoot
     direction -0.131771 -0.362037 0.922803   
     length 2.53019  
     axis -90 -7.62852e-016 -20   XYZ
    dof rx rz
    limits (-45.0 90.0)
           (-20.0 70.0)
  end
  begin
     id 10 
     name rtoes
     direction -1.53733e-011 -4.21932e-011 1   
     length 1.24596   
     axis -90 -7.62852e-016 -20   XYZ
    dof rx
    limits (-90.0 20.0)
  end
  begin
     id 11 
     name lowerback
     direction 0.0235427 0.999023 -0.0374125   
     length 2.21768   
     axis 0 0 0   XYZ
    dof rx ry rz
    limits (-20.0 45.0)
           (-30.0 30.0)
           (-30.0 30.0)
  end
  begin
     id 12 
     name upperback
     direction 0.0302156 0.996818 -0.073759   
     length 2.20352   
     axis 0 0 0   XYZ
    dof rx ry rz
    limits (-20.0 45.0)
           (-30.0 30.0)
           (-30.0 30.0)
  end
  begin
     id 13 
     name thorax
     direction 0.0187169 0.998235 -0.0563532   
     length 2.22103   
     axis 0 0 0   XYZ
    dof rx ry rz
    limits (-20.0 45.0)
           (-30.0 30.0)
           (-30.0 30.0)
  end
  begin
     id 14 
     name lowerneck
     direction -0.119528 0.987423 0.103481   
     length 1.72948   
     axis 0 0 0   XYZ
    dof rx ry rz
    limits (-20.0 45.0)
           (-30.0 30.0)
           (-30.0 30.0)
  end
  begin
     id 15 
     name upperneck
     direction 0.248049 0.963095 -0.104496   
     length 1.74979   
     axis 0 0 0   XYZ
    dof rx ry rz
    limits (-20.0 45.0)
           (-30.0 30.0)
           (-30.0 30.0)
  end
  begin
     id 16
     name head
     direction 0.0903589 0.994284 -0.056876  
     length 1.78268  
     axis 0 0 0   XYZ
    dof rx ry rz
    limits (-20.0 45.0)
           (-30.0 30.0)
           (-30.0 30.0)
  end
  begin
     id 17 
     name lclavicle
     direction 0.946008 0.242039 -0.215608  
     length 3.80783  
     axis 0 0 0   XYZ
    dof ry rz
    limits (-20.0 10.0)
           (0.0 20.0)
  end
  begin
     id 18 
     name lhumerus
     direction 1 -4.48991e-011 -2.25695e-027   
     length 4.83125   
     axis 180 -30 -90   XYZ
    dof rx ry rz
    limits (-60.0 90.0)
           (-90.0 90.0)
           (-90.0 90.0)
  end
  begin
     id 19
     name lradius
     direction 0.999991 0.00366712 -0.00211721   
     length 3.00391   
     axis 180 -30 -90   XYZ
    dof rx
    limits (-10.0 170.0)
  end
  begin
     id 20
     name lwrist
     direction 0.999991 0.00393016 -0.00141978   
     length 1.50195   
     axis -1.00488e-014 90 90   XYZ
    dof ry
    limits (-180.0 0.0)
 end
  begin
     id 21 
     name lhand
     direction 1 -4.49123e-011 2.72098e-026   
     length 1.2717   
     axis -1.73687e-014 90 90   XYZ
    dof rx rz
    limits (-90.0 90.0)
           (-45.0 45.0)
  end
  begin
     id 22 
     name lfingers
     direction 1 -4.48678e-011 5.4479e-026   
     length 1.02528   
     axis -3.47372e-014 90 90   XYZ
    dof rx
    limits (0.0 90.0)
  end
  begin
     id 23
     name lthumb
     direction 0.707107 -6.34851e-011 0.707107   
     length 1.4721   
     axis -90 45 -1.62303e-014   XYZ
    dof rx rz
    limits (-45.0 45.0)
           (-45.0 45.0)
  end
  begin
     id 24 
     name rclavicle
     direction -0.981723 0.189447 -0.0181673   
     length 3.74989  
     axis 0 0 0   XYZ 
    dof ry rz
    limits (-10.0 20.0)
           (-20.0 0.0)
  end
  begin
     id 25 
     name rhumerus
     direction -1 -4.48985e-011 2.38206e-027  
     length 4.61118   
     axis 180 30 90   XYZ
    dof rx ry rz
    limits (-90.0 60.0)
           (-90.0 90.0)
           (-90.0 90.0)
  end
  begin
     id 26 
     name rradius
     direction -1 -4.48977e-011 7.41019e-027   
     length 2.91491   
     axis 180 30 90   XYZ
    dof rx
    limits (-10.0 170.0)
  end
  begin
     id 27 
     name rwrist
     direction -1 -4.48549e-011 1.3624e-026   
     length 1.45745   
     axis -1.00488e-014 -90 -90   XYZ
    dof ry
    limits (-180.0 0.0)
  end
  begin
     id 28
     name rhand
     direction -1 -4.49107e-011 2.72109e-026   
     length 1.30769   
     axis -1.73687e-014 -90 -90   XYZ
    dof rx rz
    limits (-90.0 90.0)
           (-45.0 45.0)
  end
  begin
     id 29
     name rfingers
     direction -1 -4.48919e-011 5.44468e-026   
     length 1.05429   
     axis -3.47372e-014 -90 -90   XYZ
    dof rx
    limits (0.0 90.0)
  end
  begin
     id 30
     name rthumb
     direction -0.707107 -6.35315e-011 0.707107   
     length 1.51376   
     axis -90 -45 1.62303e-014   XYZ
    dof rx rz
    limits (-45.0 45.0)
           (-45.0 45.0)
  end
:hierarchy
  begin
    root lhipjoint rhipjoint lowerback
    lhipjoint lfemur
    lfemur ltibia
    ltibia lfoot
    lfoot ltoes
    rhipjoint rfemur
    rfemur rtibia
    rtibia rfoot
    rfoot rtoes
    lowerback upperback
    upperback thorax
    thorax lowerneck lclavicle rclavicle
    lowerneck upperneck
    upperneck head
    lclavicle lhumerus
    lhumerus lradius
    lradius lwrist
    lwrist lhand lthumb
    lhand lfingers
    rclavicle rhumerus
    rhumerus rradius
    rradius rwrist
    rwrist rhand rthumb
    rhand rfingers
  end

#!OML:ASF X:\für Bonn\!DataBase\2005_08_11_Bastian_Final\c3d\Bastian.ASF
:FULLY-SPECIFIED
:DEGREES
18
root 1.4945 20.4813 20.7103 719.124 2.09875 -5.94204
lowerback -4.16444 -1.72877 1.54905
upperback 2.83586 -2.33597 -1.57007
thorax 5.14586 -1.07239 -2.69531
lowerneck -12.3996 -4.31214 -7.70317
upperneck 5.97977 -5.63447 11.7321
head 4.38273 -2.32592 4.46933
rclavicle -1.72943e-014 -1.59028e-014
rhumerus -50.0299 28.2305 -91.0486
rradius 96.2622
rwrist 10.6082
rhand -18.5681 16.5525
rfingers 7.12502
rthumb 7.72205 -13.2865
lclavicle -1.72943e-014 -1.59028e-014
lhumerus -31.6802 -15.5213 66.6035
lradius 114.174
lwrist -143.69
lhand -32.5649 7.86942
lfingers 7.12502
lthumb -5.79416 37.7702
rfemur -4.5579 1.88683 31.7867
rtibia 46.425
rfoot 19.3498 -17.532
rtoes 37.4458
lfemur -8.92717 4.31868 -13.0122
ltibia 56.3444
lfoot 20.3147 -2.98046
ltoes -19.686
19
root 1.48229 20.7017 20.8448 718.287 1.49244 -5.97324
lowerback -2.40349 -1.58908 1.59498
upperback 3.17365 -2.13092 -1.63547
thorax 4.50321 -0.975727 -2.71691
lowerneck -12.0696 -4.3868 -8.00114
upperneck 5.84094 -5.7082 11.867
head 4.30636 -2.3755 4.55872
rclavicle 1.11319e-014 2.06736e-014
rhumerus -50.5943 28.6176 -90.7079
rradius 97.9416
rwrist 10.5965
rhand -17.8483 16.8604
rfingers 7.12502
rthumb 8.41676 -12.9519
lclavicle 1.11319e-014 2.06736e-014
lhumerus -32.2254 -14.4722 66.9432
lradius 115.556
lwrist -142.893
lhand -32.5356 7.83272
lfingers 7.12502
lthumb -5.76584 37.7343
rfemur -4.99503 1.60971 31.6634
rtibia 48.4342
rfoot 19.3901 -16.0034
rtoes 35.3626
lfemur -9.40111 5.42585 -12.7649
ltibia 58.3749
lfoot 20.3154 -3.88664
ltoes -20.7742
20
root 1.47055 20.9102 20.9784 717.357 0.865343 -5.71709
lowerback -0.496825 -1.43511 1.34593
upperback 3.63098 -1.89315 -1.77828
thorax 3.91341 -0.868151 -2.66065
lowerneck -12.0895 -4.49097 -8.27222
upperneck 5.80429 -5.81383 11.9918
head 4.32147 -2.42749 4.63374
rclavicle 1.40143e-014 -2.06736e-014
rhumerus -51.0133 29.0731 -90.3084
rradius 99.3857
rwrist 10.456
rhand -17.6637 17.3419
rfingers 7.12502
rthumb 8.59488 -12.4632
lclavicle 1.40143e-014 -2.06736e-014
lhumerus -32.5422 -13.5816 67.3162
lradius 116.68
lwrist -142.109
lhand -32.277 8.03574
lfingers 7.12502
lthumb -5.51622 37.9439
rfemur -5.4572 1.26132 31.1915
rtibia 50.6223
rfoot 19.0237 -14.9714
rtoes 33.9854
lfemur -9.70119 6.33637 -12.8725
ltibia 60.074
lfoot 20.4265 -4.86295
ltoes -22.2496
21
root 1.46018 21.0961 21.1096 716.368 0.266294 -5.2038
lowerback 1.48555 -1.27197 0.843244
upperback 4.2332 -1.64875 -2.01422
thorax 3.43838 -0.759769 -2.57176
lowerneck -12.4804 -4.62842 -8.43232
upperneck 5.77106 -5.95692 12.0999
head 4.39968 -2.48375 4.67703
rclavicle -8.24956e-015 -1.59028e-015
rhumerus -51.1284 29.5581 -89.8594
rradius 100.767
rwrist 9.71677
rhand -17.4342 17.7541
rfingers 7.12502
rthumb 8.81638 -12.0417
lclavicle -8.24956e-015 -1.59028e-015
lhumerus -32.5787 -12.9081 67.7505
lradius 117.69
lwrist -141.451
lhand -31.6218 8.22233
lfingers 7.12502
lthumb -4.88351 38.1461
rfemur -5.99576 0.721102 30.3659
rtibia 52.9595
rfoot 18.3698 -14.668
rtoes 34.0988
lfemur -9.90794 7.05674 -13.3009
ltibia 61.4913
lfoot 20.7981 -5.85069
ltoes -23.7663
22
root 1.45015 21.2685 21.2383 715.464 -0.324543 -4.61494
lowerback 3.39505 -1.08676 0.261017
upperback 4.83412 -1.39756 -2.2647
thorax 3.00821 -0.648973 -2.46809
lowerneck -12.914 -4.78638 -8.62708
upperneck 5.72321 -6.11956 12.2384
head 4.48512 -2.54737 4.733
rclavicle -1.59028e-014 1.11319e-014
rhumerus -51.1151 29.9212 -89.4239
rradius 101.919
rwrist 8.89498
rhand -17.404 18.3262
rfingers 7.12502
rthumb 8.84552 -11.4684
lclavicle -1.59028e-014 1.11319e-014
lhumerus -32.6651 -12.3579 68.3154
lradius 118.646
lwrist -141.12
lhand -30.8244 8.74849
lfingers 7.12502
lthumb -4.11354 38.6885
rfemur -6.7034 0.23928 29.4706
rtibia 55.2887
rfoot 17.5614 -15.0613
rtoes 34.8845
lfemur -10.2232 7.76851 -13.8131
ltibia 62.6798
lfoot 21.4367 -6.94473
ltoes -24.881
23
root 1.44141 21.4277 21.3634 714.843 -0.890467 -4.24269
lowerback 5.05958 -0.919932 -0.124693
upperback 5.30367 -1.1905 -2.43764
thorax 2.57864 -0.555375 -2.40875
lowerneck -13.0984 -4.89434 -8.81581
upperneck 5.50052 -6.21561 12.3792
head 4.46945 -2.58912 4.79756
rclavicle -1.39149e-015 7.95139e-015
rhumerus -51.0778 30.2434 -89.1313
rradius 102.572
rwrist 8.39849
rhand -18.1142 19.2596
rfingers 7.12502
rthumb 8.16009 -10.5629
lclavicle -1.39149e-015 7.95139e-015
lhumerus -32.917 -11.7388 69.0574
lradius 119.535
lwrist -141.368
lhand -30.009 9.67913
lfingers 7.12502
lthumb -3.32619 39.6329
rfemur -7.73175 -0.0698306 28.8875
rtibia 57.4542
rfoot 16.4234 -15.9109
rtoes 35.7687
lfemur -10.9052 8.41713 -14.11
ltibia 63.7169
lfoot 22.1414 -8.13799
ltoes -26.0636
24
root 1.43419 21.5838 21.4942 714.429 -1.45959 -4.10449
lowerback 6.46116 -0.743138 -0.293346
upperback 5.6718 -0.974616 -2.51828
thorax 2.19274 -0.45179 -2.38855
lowerneck -13.0912 -4.98739 -8.98356
upperneck 5.19576 -6.29339 12.4507
head 4.39218 -2.63286 4.8407
rclavicle 9.34288e-015 1.74931e-014
rhumerus -50.9626 30.4408 -88.9109
rradius 102.634
rwrist 8.22788
rhand -19.5392 20.4807
rfingers 7.12502
rthumb 6.78462 -9.39057
lclavicle 9.34288e-015 1.74931e-014
lhumerus -33.3478 -11.1605 69.9461
lradius 120.392
lwrist -142.171
lhand -29.4261 10.0099
lfingers 7.12502
lthumb -2.76323 39.9718
rfemur -8.86998 -0.272129 28.621
rtibia 59.2657
rfoot 14.9441 -16.9428
rtoes 36.4282
lfemur -11.7274 8.95784 -14.1709
ltibia 64.5009
lfoot 22.7624 -9.13483
ltoes -26.6481
25
root 1.42889 21.7229 21.6271 714.072 -2.00877 -4.0415
lowerback 7.76491 -0.576206 -0.394192
upperback 5.97858 -0.774104 -2.57308
thorax 1.80041 -0.35425 -2.38767
lowerneck -12.9501 -5.05661 -9.17054
upperneck 4.90167 -6.34958 12.5545
head 4.29604 -2.66896 4.90124
rclavicle 4.77083e-015 -4.77083e-015
rhumerus -50.8929 30.4651 -88.8376
rradius 102.326
rwrist 8.15737
rhand -20.4421 21.2542
rfingers 7.12502
rthumb 5.91298 -8.64326
lclavicle 4.77083e-015 -4.77083e-015
lhumerus -33.8459 -10.562 70.9079
lradius 121.322
lwrist -143.486
lhand -29.1717 9.43447
lfingers 7.12502
lthumb -2.51754 39.3994
rfemur -10.0057 -0.508747 28.4568
rtibia 60.7256
rfoot 13.261 -17.88
rtoes 36.4503
lfemur -12.5591 9.36764 -14.1364
ltibia 64.9862
lfoot 23.2927 -9.96693
ltoes -26.8317
26
root 1.42438 21.8577 21.7632 713.835 -2.54102 -4.06946
lowerback 8.87687 -0.414767 -0.422336
upperback 6.2882 -0.576162 -2.60101
thorax 1.52033 -0.255645 -2.40848
lowerneck -12.7954 -5.12489 -9.3535
upperneck 4.59376 -6.40705 12.6747
head 4.19456 -2.70542 4.96665
rclavicle -3.18055e-015 6.36111e-015
rhumerus -50.8264 30.3268 -88.838
rradius 101.9
rwrist 8.20938
rhand -20.6706 21.3812
rfingers 7.12502
rthumb 5.69242 -8.52236
lclavicle -3.18055e-015 6.36111e-015
lhumerus -34.19 -9.92451 71.8586
lradius 122.208
lwrist -144.909
lhand -29.0051 8.83764
lfingers 7.12502
lthumb -2.35659 38.8044
rfemur -11.1353 -0.730598 28.4272
rtibia 61.7863
rfoot 11.4035 -18.8345
rtoes 36.942
lfemur -13.3394 9.69592 -14.0346
ltibia 65.0019
lfoot 23.7064 -10.9764
ltoes -27.6688
27
root 1.41987 21.9897 21.9038 713.685 -3.00938 -4.10549
lowerback 9.82891 -0.282035 -0.514461
upperback 6.56938 -0.420185 -2.57974
thorax 1.30078 -0.18089 -2.34481
lowerneck -12.4829 -5.14532 -9.62695
upperneck 4.23178 -6.39622 12.8357
head 4.04809 -2.71421 5.06877
rclavicle 1.39149e-014 1.43125e-014
rhumerus -50.7726 30.1146 -88.8541
rradius 101.375
rwrist 7.99398
rhand -20.7414 21.5993
rfingers 7.12502
rthumb 5.62405 -8.30604
lclavicle 1.39149e-014 1.43125e-014
lhumerus -34.5862 -9.14647 72.9009
lradius 122.89
lwrist -146.417
lhand -28.9418 8.53182
lfingers 7.12502
lthumb -2.29549 38.4992
rfemur -12.2206 -1.0008 28.4361
rtibia 62.4764
rfoot 9.3518 -19.8328
rtoes 37.8469
lfemur -14.0092 9.98844 -13.9703
ltibia 64.5144
lfoot 23.8048 -12.2941
ltoes -29.8648
28
root 1.41569 22.1135 22.0488 713.617 -3.47247 -4.14761
lowerback 10.602 -0.158255 -0.637713
upperback 6.85256 -0.277036 -2.5437
thorax 1.18285 -0.113645 -2.25102
lowerneck -12.2392 -5.13365 -9.8746
upperneck 3.91289 -6.34694 13.0095
head 3.92144 -2.69985 5.17328
rclavicle 1.74931e-014 2.06736e-014
rhumerus -50.6042 29.8107 -88.8841
rradius 100.689
rwrist 7.67078
rhand -20.7199 21.7755
rfingers 7.12502
rthumb 5.64482 -8.12927
lclavicle 1.74931e-014 2.06736e-014
lhumerus -34.926 -8.22055 73.9106
lradius 123.221
lwrist -147.667
lhand -29.0183 8.45142
lfingers 7.12502
lthumb -2.36938 38.418
rfemur -13.2249 -1.26181 28.4756
rtibia 62.7786
rfoot 7.72215 -20.4046
rtoes 38.4826
lfemur -14.5632 10.2375 -13.945
ltibia 63.5818
lfoot 23.6345 -13.6128
ltoes -32.8686
29
root 1.4112 22.2318 22.2 713.653 -3.89206 -4.16911
lowerback 11.2304 -0.0457567 -0.805159
upperback 7.05773 -0.153446 -2.51842
thorax 1.06247 -0.0577885 -2.1436
lowerneck -12.0337 -5.12276 -9.99631
upperneck 3.70644 -6.31695 13.0743
head 3.82872 -2.69477 5.21989
rclavicle -1.23246e-014 1.59028e-014
rhumerus -50.4883 29.4139 -89.0767
rradius 99.8365
rwrist 7.38623
rhand -20.6889 21.7766
rfingers 7.12502
rthumb 5.67467 -8.12741
lclavicle -1.23246e-014 1.59028e-014
lhumerus -35.3254 -7.29756 74.8626
lradius 123.228
lwrist -148.758
lhand -29.104 8.80217
lfingers 7.12502
lthumb -2.4522 38.7678
rfemur -14.1749 -1.53721 28.5153
rtibia 62.6898
rfoot 6.49298 -20.9187
rtoes 39.1755
lfemur -15.0636 10.4224 -13.9681
ltibia 62.3236
lfoot 23.3158 -14.6795
ltoes -34.7528
30
root 1.40693 22.3395 22.3587 713.854 -4.20745 -4.16271
lowerback 11.5903 0.0424462 -1.00383
upperback 7.20431 -0.0614588 -2.502
thorax 1.02536 -0.0185913 -2.02535
lowerneck -11.8644 -5.10123 -10.0268
upperneck 3.56024 -6.28537 13.0903
head 3.75503 -2.68739 5.2354
rclavicle -1.94809e-014 4.13472e-014
rhumerus -50.3642 28.9313 -89.2972
rradius 98.7097
rwrist 7.38936
rhand -20.9125 21.8718
rfingers 7.12502
rthumb 5.45885 -8.03794
lclavicle -1.94809e-014 4.13472e-014
lhumerus -35.6748 -6.47446 75.832
lradius 122.863
lwrist -149.813
lhand -29.2106 8.55904
lfingers 7.12502
lthumb -2.55509 38.5235
rfemur -15.1089 -1.84989 28.5405
rtibia 62.2068
rfoot 5.53972 -21.0671
rtoes 38.8354
lfemur -15.642 10.4587 -14.0882
ltibia 60.8892
lfoot 22.882 -15.3297
ltoes -35.027
